<svg width="24" height="24" viewBox="0 0 24 24" fill="none" xmlns="http://www.w3.org/2000/svg">
<path fill-rule="evenodd" clip-rule="evenodd" d="M0 22.6667C0 22.313 0.114935 21.9739 0.31952 21.7239C0.524105 21.4738 0.801582 21.3333 1.09091 21.3333H22.9091C23.1984 21.3333 23.4759 21.4738 23.6805 21.7239C23.8851 21.9739 24 22.313 24 22.6667C24 23.0203 23.8851 23.3594 23.6805 23.6095C23.4759 23.8595 23.1984 24 22.9091 24H1.09091C0.801582 24 0.524105 23.8595 0.31952 23.6095C0.114935 23.3594 0 23.0203 0 22.6667ZM0 12C0 11.6464 0.114935 11.3072 0.31952 11.0572C0.524105 10.8071 0.801582 10.6667 1.09091 10.6667H22.9091C23.1984 10.6667 23.4759 10.8071 23.6805 11.0572C23.8851 11.3072 24 11.6464 24 12C24 12.3536 23.8851 12.6928 23.6805 12.9428C23.4759 13.1929 23.1984 13.3333 22.9091 13.3333H1.09091C0.801582 13.3333 0.524105 13.1929 0.31952 12.9428C0.114935 12.6928 0 12.3536 0 12ZM0 1.33333C0 0.979711 0.114935 0.640573 0.31952 0.390525C0.524105 0.140476 0.801582 0 1.09091 0H22.9091C23.1984 0 23.4759 0.140476 23.6805 0.390525C23.8851 0.640573 24 0.979711 24 1.33333C24 1.68696 23.8851 2.02609 23.6805 2.27614C23.4759 2.52619 23.1984 2.66667 22.9091 2.66667H1.09091C0.801582 2.66667 0.524105 2.52619 0.31952 2.27614C0.114935 2.02609 0 1.68696 0 1.33333Z" fill="#212529"/>
</svg>
